<?xml version="1.0" encoding="UTF-8" standalone="no"?>
<!DOCTYPE svg PUBLIC "-//W3C//DTD SVG 1.1//EN" "http://www.w3.org/Graphics/SVG/1.1/DTD/svg11.dtd">
<svg width="100%" height="100%" viewBox="0 0 1200 350" version="1.1" xmlns="http://www.w3.org/2000/svg" xmlns:xlink="http://www.w3.org/1999/xlink" xml:space="preserve" xmlns:serif="http://www.serif.com/" style="fill-rule:evenodd;clip-rule:evenodd;stroke-linejoin:round;stroke-miterlimit:2;">
    <g transform="matrix(0.691926,0,0,0.691926,-768.432,-3346.28)">
        <g transform="matrix(0.457864,2.67476e-18,9.26862e-18,0.488666,1774.45,3410.38)">
            <path d="M374.074,3597.11L294.607,3597.11L439.242,3213.22L530.533,3213.22L674.894,3597.11L595.702,3597.11L486.262,3292.06L482.963,3292.06L374.074,3597.11ZM376.823,3446.65L592.677,3446.65L592.677,3502.3L376.823,3502.3L376.823,3446.65Z" style="fill:rgb(203,204,205);fill-rule:nonzero;"/>
            <path d="M704.591,3597.11L704.591,3309.07L774.709,3309.07L774.709,3357.5L778.008,3357.5C783.508,3340.67 793.132,3327.79 806.881,3318.86C820.629,3309.75 836.303,3305.2 853.901,3305.2C857.751,3305.2 862.15,3305.37 867.1,3305.72C872.232,3306.06 876.449,3306.49 879.748,3307.01L879.748,3369.35C876.632,3368.32 871.774,3367.47 865.175,3366.78C858.575,3366.09 852.251,3365.75 846.202,3365.75C832.82,3365.75 820.904,3368.41 810.455,3373.73C800.006,3379.06 791.757,3386.36 785.708,3395.63C779.842,3404.91 776.909,3415.73 776.909,3428.1L776.909,3597.11L704.591,3597.11Z" style="fill:rgb(203,204,205);fill-rule:nonzero;"/>
            <path d="M1028.23,3602.78C997.62,3602.78 971.314,3596.51 949.316,3583.97C927.319,3571.26 910.454,3553.74 898.721,3531.41C886.989,3509.08 881.123,3483.4 881.123,3454.38C881.123,3425.01 887.081,3399.16 898.996,3376.83C910.912,3354.5 927.869,3337.06 949.866,3324.53C971.864,3311.82 997.803,3305.46 1027.68,3305.46C1052.8,3305.46 1074.98,3309.75 1094.23,3318.34C1113.48,3326.93 1128.78,3339.04 1140.15,3354.67C1151.7,3370.13 1158.3,3388.25 1159.94,3409.03L1090.65,3409.03C1088.82,3399.76 1085.25,3391.43 1079.93,3384.04C1074.61,3376.65 1067.65,3370.81 1059.03,3366.52C1050.6,3362.23 1040.52,3360.08 1028.78,3360.08C1013.94,3360.08 1000.92,3363.86 989.737,3371.41C978.738,3378.8 970.123,3389.45 963.89,3403.36C957.657,3417.28 954.541,3433.94 954.541,3453.35C954.541,3472.93 957.566,3489.84 963.615,3504.1C969.664,3518.18 978.28,3529.09 989.462,3536.82C1000.64,3544.38 1013.75,3548.16 1028.78,3548.16C1044.73,3548.16 1058.21,3543.78 1069.2,3535.02C1080.39,3526.26 1087.54,3514.15 1090.65,3498.69L1159.94,3498.69C1158.3,3519.13 1151.88,3537.16 1140.7,3552.79C1129.52,3568.43 1114.39,3580.7 1095.33,3589.64C1076.26,3598.4 1053.9,3602.78 1028.23,3602.78Z" style="fill:rgb(203,204,205);fill-rule:nonzero;"/>
            <path d="M1271.31,3428.61L1271.31,3597.11L1198.99,3597.11L1198.99,3213.22L1269.66,3213.22L1269.66,3358.28L1273.51,3358.28C1280.66,3341.96 1291.75,3329.08 1306.78,3319.63C1321.81,3310.18 1341.15,3305.46 1364.8,3305.46C1386.07,3305.46 1404.58,3309.67 1420.35,3318.08C1436.29,3326.5 1448.67,3338.78 1457.47,3354.93C1466.27,3371.07 1470.66,3390.74 1470.66,3413.93L1470.66,3597.11L1398.07,3597.11L1398.07,3424.49C1398.07,3404.91 1392.76,3389.79 1382.12,3379.14C1371.49,3368.32 1356.64,3362.91 1337.58,3362.91C1324.75,3362.91 1313.29,3365.49 1303.21,3370.64C1293.31,3375.8 1285.52,3383.27 1279.83,3393.06C1274.15,3402.68 1271.31,3414.53 1271.31,3428.61Z" style="fill:rgb(203,204,205);fill-rule:nonzero;"/>
            <path d="M1524.01,3597.11L1524.01,3309.07L1596.33,3309.07L1596.33,3597.11L1524.01,3597.11ZM1560.31,3268.62C1548.76,3268.62 1538.86,3265.01 1530.61,3257.8C1522.36,3250.58 1518.24,3241.91 1518.24,3231.77C1518.24,3221.47 1522.36,3212.71 1530.61,3205.49C1538.86,3198.28 1548.76,3194.67 1560.31,3194.67C1571.67,3194.67 1581.48,3198.28 1589.73,3205.49C1597.98,3212.71 1602.1,3221.38 1602.1,3231.52C1602.1,3241.82 1597.98,3250.58 1589.73,3257.8C1581.48,3265.01 1571.67,3268.62 1560.31,3268.62Z" style="fill:rgb(203,204,205);fill-rule:nonzero;"/>
            <path d="M1924.09,3309.07L1814.65,3597.11L1734.36,3597.11L1625.2,3309.07L1702.47,3309.07L1773.68,3523.17L1776.98,3523.17L1847.65,3309.07L1924.09,3309.07Z" style="fill:rgb(203,204,205);fill-rule:nonzero;"/>
            <path d="M2078.63,3602.78C2047.83,3602.78 2021.25,3596.76 1998.89,3584.74C1976.52,3572.55 1959.29,3555.37 1947.19,3533.21C1935.28,3511.06 1929.32,3484.95 1929.32,3454.89C1929.32,3425.18 1935.28,3399.16 1947.19,3376.83C1959.11,3354.33 1975.88,3336.81 1997.51,3324.27C2019.14,3311.73 2044.62,3305.46 2073.95,3305.46C2092.84,3305.46 2110.71,3308.29 2127.57,3313.96C2144.62,3319.63 2159.65,3328.39 2172.67,3340.24C2185.87,3352.09 2196.23,3367.21 2203.74,3385.59C2211.26,3403.79 2215.02,3425.52 2215.02,3450.77L2215.02,3471.89L1963.14,3471.89L1963.14,3426.29L2178.99,3426.29L2145.17,3439.69C2145.17,3423.37 2142.51,3409.2 2137.2,3397.18C2131.88,3384.99 2124,3375.45 2113.55,3368.58C2103.1,3361.71 2090.09,3358.28 2074.51,3358.28C2058.92,3358.28 2045.63,3361.71 2034.63,3368.58C2023.63,3375.45 2015.29,3384.73 2009.61,3396.41C2003.93,3407.91 2001.09,3420.8 2001.09,3435.05L2001.09,3466.74C2001.09,3484.26 2004.3,3499.29 2010.71,3511.83C2017.31,3524.2 2026.48,3533.64 2038.21,3540.17C2050.12,3546.7 2063.96,3549.96 2079.73,3549.96C2089.99,3549.96 2099.34,3548.59 2107.78,3545.84C2116.39,3543.09 2123.72,3538.97 2129.77,3533.47C2136.01,3527.8 2140.77,3520.85 2144.07,3512.6L2211.72,3520.07C2207.32,3536.74 2199.16,3551.33 2187.24,3563.87C2175.51,3576.24 2160.39,3585.86 2141.87,3592.73C2123.54,3599.43 2102.46,3602.78 2078.63,3602.78Z" style="fill:rgb(203,204,205);fill-rule:nonzero;"/>
        </g>
        <g transform="matrix(0.623016,8.49277e-33,-1.69855e-32,0.623016,-579.013,3294.83)">
            <path d="M3401.61,2908.13L3401.61,3014.81L3344.18,3014.81L3344.18,2697.42L3463.3,2697.42C3487.64,2697.42 3508.1,2701.97 3524.67,2711.05C3541.24,2720.14 3553.8,2732.62 3562.35,2748.5C3570.9,2764.38 3575.17,2782.46 3575.17,2802.74C3575.17,2822.99 3570.88,2841.02 3562.29,2856.84C3553.7,2872.66 3541.01,2885.08 3524.24,2894.1C3507.47,2903.11 3486.84,2907.62 3462.36,2907.62L3401.61,2908.13ZM3401.61,2860.57L3454.61,2860.42C3468.92,2860.42 3480.64,2857.95 3489.75,2853.01C3498.87,2848.06 3505.6,2841.24 3509.95,2832.53C3514.29,2823.83 3516.47,2813.9 3516.47,2802.74C3516.47,2791.38 3514.29,2781.4 3509.95,2772.81C3505.6,2764.22 3498.85,2757.51 3489.69,2752.7C3480.53,2747.89 3468.75,2745.48 3454.35,2745.48L3401.61,2745.48L3401.61,2860.57ZM3198.39,3019.67C3173.74,3019.67 3152.33,3015.84 3134.15,3008.19C3115.97,3000.53 3101.78,2989.36 3091.57,2974.66C3081.36,2959.96 3075.84,2942.1 3075.02,2921.09L3131.51,2921.09C3132.42,2932.11 3135.84,2941.29 3141.79,2948.65C3147.74,2956.01 3155.58,2961.52 3165.29,2965.18C3175.01,2968.84 3185.87,2970.68 3197.88,2970.68C3210.35,2970.68 3221.35,2968.77 3230.88,2964.97C3240.41,2961.16 3247.86,2955.85 3253.22,2949.03C3258.59,2942.22 3261.27,2934.26 3261.27,2925.18C3261.27,2916.94 3258.87,2910.14 3254.08,2904.77C3249.28,2899.4 3242.61,2894.88 3234.07,2891.22C3225.54,2887.56 3215.55,2884.3 3204.1,2881.47L3168.06,2872.09C3141.96,2865.45 3121.36,2855.26 3106.26,2841.53C3091.17,2827.79 3083.62,2809.52 3083.62,2786.72C3083.62,2768 3088.68,2751.63 3098.81,2737.62C3108.93,2723.6 3122.77,2712.69 3140.31,2704.88C3157.84,2697.07 3177.69,2693.16 3199.84,2693.16C3222.39,2693.16 3242.18,2697.07 3259.19,2704.9C3276.2,2712.72 3289.55,2723.51 3299.23,2737.28C3308.92,2751.04 3313.96,2766.84 3314.36,2784.67L3258.8,2784.67C3257.41,2771.15 3251.4,2760.64 3240.76,2753.15C3230.12,2745.65 3216.23,2741.9 3199.07,2741.9C3187.2,2741.9 3176.98,2743.67 3168.4,2747.22C3159.82,2750.77 3153.25,2755.67 3148.68,2761.92C3144.1,2768.17 3141.82,2775.3 3141.82,2783.31C3141.82,2792.03 3144.49,2799.2 3149.83,2804.84C3155.17,2810.48 3161.97,2815.01 3170.25,2818.41C3178.53,2821.82 3187,2824.63 3195.66,2826.85L3225.24,2834.43C3237.16,2837.27 3248.69,2841.06 3259.81,2845.81C3270.93,2850.55 3280.92,2856.51 3289.8,2863.7C3298.67,2870.89 3305.7,2879.57 3310.87,2889.75C3316.03,2899.93 3318.62,2911.91 3318.62,2925.69C3318.62,2944.26 3313.88,2960.62 3304.39,2974.75C3294.9,2988.88 3281.21,2999.89 3263.32,3007.8C3245.43,3015.71 3223.79,3019.67 3198.39,3019.67ZM3738,3019.07C3710.22,3019.07 3685.37,3012.61 3663.45,2999.69C3641.52,2986.76 3624.25,2968.16 3611.64,2943.86C3599.03,2919.56 3592.72,2890.38 3592.72,2856.33C3592.72,2822.08 3599.07,2792.76 3611.77,2768.4C3624.46,2744.03 3641.79,2725.39 3663.74,2712.5C3685.7,2699.61 3710.45,2693.16 3738,2693.16C3755.55,2693.16 3771.95,2695.66 3787.19,2700.66C3802.42,2705.66 3815.99,2712.94 3827.89,2722.49C3839.8,2732.05 3849.56,2743.74 3857.18,2757.56C3864.81,2771.37 3869.81,2787.09 3872.2,2804.7L3814.26,2804.7C3812.67,2795.15 3809.67,2786.68 3805.25,2779.26C3800.83,2771.85 3795.3,2765.56 3788.64,2760.41C3781.97,2755.26 3774.45,2751.34 3766.08,2748.65C3757.7,2745.97 3748.68,2744.63 3739.03,2744.63C3721.78,2744.63 3706.48,2748.95 3693.1,2757.6C3679.72,2766.25 3669.26,2778.89 3661.72,2795.51C3654.18,2812.14 3650.41,2832.41 3650.41,2856.33C3650.41,2880.5 3654.21,2900.86 3661.81,2917.42C3669.41,2933.98 3679.86,2946.48 3693.18,2954.93C3706.5,2963.38 3721.73,2967.61 3738.85,2967.61C3748.34,2967.61 3757.23,2966.34 3765.52,2963.79C3773.82,2961.25 3781.31,2957.49 3788,2952.5C3794.68,2947.52 3800.29,2941.43 3804.82,2934.25C3809.35,2927.07 3812.5,2918.79 3814.26,2909.41L3872.2,2909.41C3870.1,2924.61 3865.48,2938.84 3858.33,2952.1C3851.19,2965.37 3841.81,2977 3830.19,2987.01C3818.58,2997.03 3805.02,3004.87 3789.53,3010.55C3774.04,3016.23 3756.86,3019.07 3738,3019.07Z" style="fill:rgb(203,204,205);"/>
        </g>
        <g transform="matrix(0.623016,8.49277e-33,-1.69855e-32,0.623016,-579.013,3294.83)">
            <path d="M2889.29,3000.35L2895.37,2893.93L2806.15,2952.63L2773.91,2896.96L2869.34,2849.25L2773.91,2801.53L2806.15,2745.14L2895.37,2803.84L2889.29,2697.42L2953.2,2697.42L2947.42,2803.84L3036.64,2745.14L3068.59,2801.53L2973.45,2849.25L3068.59,2896.96L3036.64,2952.63L2947.42,2893.93L2953.2,3000.35L2889.29,3000.35Z" style="fill:rgb(119,119,119);"/>
        </g>
    </g>
</svg>
