<?xml version="1.0" encoding="UTF-8" standalone="no"?>
<!DOCTYPE svg PUBLIC "-//W3C//DTD SVG 1.1//EN" "http://www.w3.org/Graphics/SVG/1.1/DTD/svg11.dtd">
<svg width="100%" height="100%" viewBox="0 0 1200 350" version="1.1" xmlns="http://www.w3.org/2000/svg" xmlns:xlink="http://www.w3.org/1999/xlink" xml:space="preserve" xmlns:serif="http://www.serif.com/" style="fill-rule:evenodd;clip-rule:evenodd;stroke-linejoin:round;stroke-miterlimit:2;">
    <g transform="matrix(0.691926,0,0,0.691926,-768.432,-3346.28)">
        <g transform="matrix(0.285484,1.66775e-18,5.41484e-18,0.285484,1824.71,4063.25)">
            <g transform="matrix(903.179,0,0,903.179,3396.26,3870.32)">
            </g>
            <text x="291.582px" y="3870.32px" style="font-family:'InterTight-SemiBold', 'Inter Tight';font-weight:600;font-size:903.179px;fill:rgb(1,0,1);">Ar<tspan x="1215.49px " y="3870.32px ">c</tspan>hiv<tspan x="2896.6px " y="3870.32px ">e</tspan></text>
        </g>
        <g transform="matrix(0.623016,8.49277e-33,-1.69855e-32,0.623016,-579.013,3294.83)">
            <path d="M3401.61,2908.13L3401.61,3014.81L3344.18,3014.81L3344.18,2697.42L3463.3,2697.42C3487.64,2697.42 3508.1,2701.97 3524.67,2711.05C3541.24,2720.14 3553.8,2732.62 3562.35,2748.5C3570.9,2764.38 3575.17,2782.46 3575.17,2802.74C3575.17,2822.99 3570.88,2841.02 3562.29,2856.84C3553.7,2872.66 3541.01,2885.08 3524.24,2894.1C3507.47,2903.11 3486.84,2907.62 3462.36,2907.62L3401.61,2908.13ZM3401.61,2860.57L3454.61,2860.42C3468.92,2860.42 3480.64,2857.95 3489.75,2853.01C3498.87,2848.06 3505.6,2841.24 3509.95,2832.53C3514.29,2823.83 3516.47,2813.9 3516.47,2802.74C3516.47,2791.38 3514.29,2781.4 3509.95,2772.81C3505.6,2764.22 3498.85,2757.51 3489.69,2752.7C3480.53,2747.89 3468.75,2745.48 3454.35,2745.48L3401.61,2745.48L3401.61,2860.57ZM3198.39,3019.67C3173.74,3019.67 3152.33,3015.84 3134.15,3008.19C3115.97,3000.53 3101.78,2989.36 3091.57,2974.66C3081.36,2959.96 3075.84,2942.1 3075.02,2921.09L3131.51,2921.09C3132.42,2932.11 3135.84,2941.29 3141.79,2948.65C3147.74,2956.01 3155.58,2961.52 3165.29,2965.18C3175.01,2968.84 3185.87,2970.68 3197.88,2970.68C3210.35,2970.68 3221.35,2968.77 3230.88,2964.97C3240.41,2961.16 3247.86,2955.85 3253.22,2949.03C3258.59,2942.22 3261.27,2934.26 3261.27,2925.18C3261.27,2916.94 3258.87,2910.14 3254.08,2904.77C3249.28,2899.4 3242.61,2894.88 3234.07,2891.22C3225.54,2887.56 3215.55,2884.3 3204.1,2881.47L3168.06,2872.09C3141.96,2865.45 3121.36,2855.26 3106.26,2841.53C3091.17,2827.79 3083.62,2809.52 3083.62,2786.72C3083.62,2768 3088.68,2751.63 3098.81,2737.62C3108.93,2723.6 3122.77,2712.69 3140.31,2704.88C3157.84,2697.07 3177.69,2693.16 3199.84,2693.16C3222.39,2693.16 3242.18,2697.07 3259.19,2704.9C3276.2,2712.72 3289.55,2723.51 3299.23,2737.28C3308.92,2751.04 3313.96,2766.84 3314.36,2784.67L3258.8,2784.67C3257.41,2771.15 3251.4,2760.64 3240.76,2753.15C3230.12,2745.65 3216.23,2741.9 3199.07,2741.9C3187.2,2741.9 3176.98,2743.67 3168.4,2747.22C3159.82,2750.77 3153.25,2755.67 3148.68,2761.92C3144.1,2768.17 3141.82,2775.3 3141.82,2783.31C3141.82,2792.03 3144.49,2799.2 3149.83,2804.84C3155.17,2810.48 3161.97,2815.01 3170.25,2818.41C3178.53,2821.82 3187,2824.63 3195.66,2826.85L3225.24,2834.43C3237.16,2837.27 3248.69,2841.06 3259.81,2845.81C3270.93,2850.55 3280.92,2856.51 3289.8,2863.7C3298.67,2870.89 3305.7,2879.57 3310.87,2889.75C3316.03,2899.93 3318.62,2911.91 3318.62,2925.69C3318.62,2944.26 3313.88,2960.62 3304.39,2974.75C3294.9,2988.88 3281.21,2999.89 3263.32,3007.8C3245.43,3015.71 3223.79,3019.67 3198.39,3019.67ZM3738,3019.07C3710.22,3019.07 3685.37,3012.61 3663.45,2999.69C3641.52,2986.76 3624.25,2968.16 3611.64,2943.86C3599.03,2919.56 3592.72,2890.38 3592.72,2856.33C3592.72,2822.08 3599.07,2792.76 3611.77,2768.4C3624.46,2744.03 3641.79,2725.39 3663.74,2712.5C3685.7,2699.61 3710.45,2693.16 3738,2693.16C3755.55,2693.16 3771.95,2695.66 3787.19,2700.66C3802.42,2705.66 3815.99,2712.94 3827.89,2722.49C3839.8,2732.05 3849.56,2743.74 3857.18,2757.56C3864.81,2771.37 3869.81,2787.09 3872.2,2804.7L3814.26,2804.7C3812.67,2795.15 3809.67,2786.68 3805.25,2779.26C3800.83,2771.85 3795.3,2765.56 3788.64,2760.41C3781.97,2755.26 3774.45,2751.34 3766.08,2748.65C3757.7,2745.97 3748.68,2744.63 3739.03,2744.63C3721.78,2744.63 3706.48,2748.95 3693.1,2757.6C3679.72,2766.25 3669.26,2778.89 3661.72,2795.51C3654.18,2812.14 3650.41,2832.41 3650.41,2856.33C3650.41,2880.5 3654.21,2900.86 3661.81,2917.42C3669.41,2933.98 3679.86,2946.48 3693.18,2954.93C3706.5,2963.38 3721.73,2967.61 3738.85,2967.61C3748.34,2967.61 3757.23,2966.34 3765.52,2963.79C3773.82,2961.25 3781.31,2957.49 3788,2952.5C3794.68,2947.52 3800.29,2941.43 3804.82,2934.25C3809.35,2927.07 3812.5,2918.79 3814.26,2909.41L3872.2,2909.41C3870.1,2924.61 3865.48,2938.84 3858.33,2952.1C3851.19,2965.37 3841.81,2977 3830.19,2987.01C3818.58,2997.03 3805.02,3004.87 3789.53,3010.55C3774.04,3016.23 3756.86,3019.07 3738,3019.07ZM2889.29,3000.35L2895.37,2893.93L2806.15,2952.63L2773.91,2896.96L2869.34,2849.25L2773.91,2801.53L2806.15,2745.14L2895.37,2803.84L2889.29,2697.42L2953.2,2697.42L2947.42,2803.84L3036.64,2745.14L3068.59,2801.53L2973.45,2849.25L3068.59,2896.96L3036.64,2952.63L2947.42,2893.93L2953.2,3000.35L2889.29,3000.35Z" style="fill:rgb(1,0,1);"/>
        </g>
    </g>
</svg>
